<svg width="697" height="255" viewBox="0 0 697 255" fill="none" xmlns="http://www.w3.org/2000/svg">
<path fill-rule="evenodd" clip-rule="evenodd" d="M0.5 0.5H695.913H0.5Z" fill="white"/>
<path d="M0.5 0.5H695.913" stroke="#EAEAEA" stroke-linecap="round" stroke-dasharray="4 4"/>
<path fill-rule="evenodd" clip-rule="evenodd" d="M0.5 28.7222H695.913H0.5Z" fill="white"/>
<path d="M0.5 28.7222H695.913" stroke="#EAEAEA" stroke-linecap="round" stroke-dasharray="4 4"/>
<path fill-rule="evenodd" clip-rule="evenodd" d="M0.5 56.9445H695.913H0.5Z" fill="white"/>
<path d="M0.5 56.9445H695.913" stroke="#EAEAEA" stroke-linecap="round" stroke-dasharray="4 4"/>
<path fill-rule="evenodd" clip-rule="evenodd" d="M0.5 85.1666H695.913H0.5Z" fill="white"/>
<path d="M0.5 85.1666H695.913" stroke="#EAEAEA" stroke-linecap="round" stroke-dasharray="4 4"/>
<path fill-rule="evenodd" clip-rule="evenodd" d="M0.5 113.389H695.913H0.5Z" fill="white"/>
<path d="M0.5 113.389H695.913" stroke="#EAEAEA" stroke-linecap="round" stroke-dasharray="4 4"/>
<path fill-rule="evenodd" clip-rule="evenodd" d="M0.5 141.611H695.913H0.5Z" fill="white"/>
<path d="M0.5 141.611H695.913" stroke="#EAEAEA" stroke-linecap="round" stroke-dasharray="4 4"/>
<path fill-rule="evenodd" clip-rule="evenodd" d="M0.5 169.833H695.913H0.5Z" fill="white"/>
<path d="M0.5 169.833H695.913" stroke="#EAEAEA" stroke-linecap="round" stroke-dasharray="4 4"/>
<path fill-rule="evenodd" clip-rule="evenodd" d="M0.5 198.056H695.913H0.5Z" fill="white"/>
<path d="M0.5 198.056H695.913" stroke="#EAEAEA" stroke-linecap="round" stroke-dasharray="4 4"/>
<path fill-rule="evenodd" clip-rule="evenodd" d="M0.5 226.278H695.913H0.5Z" fill="white"/>
<path d="M0.5 226.278H695.913" stroke="#EAEAEA" stroke-linecap="round" stroke-dasharray="4 4"/>
<path fill-rule="evenodd" clip-rule="evenodd" d="M0.5 254.5H695.913H0.5Z" fill="white"/>
<path d="M0.5 254.5H695.913" stroke="#EAEAEA" stroke-linecap="round" stroke-dasharray="4 4"/>
</svg>
