<svg width="696" height="216" viewBox="0 0 696 216" fill="none" xmlns="http://www.w3.org/2000/svg">
<path d="M0 163C0 154.716 6.71573 148 15 148C23.2843 148 30 154.716 30 163V216H0V163Z" fill="#34CAA5" fill-opacity="0.1"/>
<path d="M60.5454 111C60.5454 102.716 67.2611 96 75.5454 96C83.8297 96 90.5454 102.716 90.5454 111V216H60.5454V111Z" fill="#34CAA5" fill-opacity="0.1"/>
<path d="M121.091 191C121.091 182.716 127.807 176 136.091 176C144.375 176 151.091 182.716 151.091 191V216H121.091V191Z" fill="#34CAA5" fill-opacity="0.1"/>
<path d="M181.636 70C181.636 61.7157 188.352 55 196.636 55C204.921 55 211.636 61.7157 211.636 70V216H181.636V70Z" fill="#34CAA5" fill-opacity="0.1"/>
<path d="M242.182 150C242.182 141.716 248.897 135 257.182 135C265.466 135 272.182 141.716 272.182 150V216H242.182V150Z" fill="#34CAA5" fill-opacity="0.1"/>
<path d="M302.728 15C302.728 6.71572 309.443 0 317.728 0C326.012 0 332.728 6.71573 332.728 15V216H302.728V15Z" fill="url(#paint0_linear_2126_1968)"/>
<path d="M363.273 150C363.273 141.716 369.989 135 378.273 135C386.557 135 393.273 141.716 393.273 150V216H363.273V150Z" fill="#34CAA5" fill-opacity="0.1"/>
<path d="M423.818 100C423.818 91.7157 430.534 85 438.818 85C447.103 85 453.818 91.7157 453.818 100V216H423.818V100Z" fill="#34CAA5" fill-opacity="0.1"/>
<path d="M484.364 49C484.364 40.7157 491.079 34 499.364 34C507.648 34 514.364 40.7157 514.364 49V216H484.364V49Z" fill="#34CAA5" fill-opacity="0.1"/>
<path d="M544.909 180C544.909 171.716 551.625 165 559.909 165C568.193 165 574.909 171.716 574.909 180V216H544.909V180Z" fill="#34CAA5" fill-opacity="0.1"/>
<path d="M605.455 60C605.455 51.7157 612.17 45 620.455 45C628.739 45 635.455 51.7157 635.455 60V216H605.455V60Z" fill="#34CAA5" fill-opacity="0.1"/>
<path d="M666 80C666 71.7157 672.716 65 681 65C689.284 65 696 71.7157 696 80V216H666V80Z" fill="#34CAA5" fill-opacity="0.1"/>
<defs>
<linearGradient id="paint0_linear_2126_1968" x1="317.728" y1="0" x2="317.728" y2="216" gradientUnits="userSpaceOnUse">
<stop stop-color="#34CAA5"/>
<stop offset="1" stop-color="#34CAA5" stop-opacity="0"/>
</linearGradient>
</defs>
</svg>
