<svg width="80" height="428" viewBox="0 0 80 428" fill="none" xmlns="http://www.w3.org/2000/svg">
<path d="M35.24 10H33.34C31.15 10 30 11.15 30 13.33V15.23C30 17.41 31.15 18.56 33.33 18.56H35.23C37.41 18.56 38.56 17.41 38.56 15.23V13.33C38.57 11.15 37.42 10 35.24 10Z" fill="#0D062D"/>
<path opacity="0.4" d="M46.6699 10H44.7699C42.5899 10 41.4399 11.15 41.4399 13.33V15.23C41.4399 17.41 42.5899 18.56 44.7699 18.56H46.6699C48.8499 18.56 49.9999 17.41 49.9999 15.23V13.33C49.9999 11.15 48.8499 10 46.6699 10Z" fill="#0D062D"/>
<path d="M46.6699 21.4301H44.7699C42.5899 21.4301 41.4399 22.5801 41.4399 24.7601V26.6601C41.4399 28.8401 42.5899 29.9901 44.7699 29.9901H46.6699C48.8499 29.9901 49.9999 28.8401 49.9999 26.6601V24.7601C49.9999 22.5801 48.8499 21.4301 46.6699 21.4301Z" fill="#0D062D"/>
<path opacity="0.4" d="M35.24 21.4301H33.34C31.15 21.4301 30 22.5801 30 24.7601V26.6601C30 28.8501 31.15 30.0001 33.33 30.0001H35.23C37.41 30.0001 38.56 28.8501 38.56 26.6701V24.7701C38.57 22.5801 37.42 21.4301 35.24 21.4301Z" fill="#0D062D"/>
<path d="M76 12.0251C76 10.4213 77.4095 9.18271 79 9.38889V30C77.3431 30 76 28.6569 76 27L76 12.0251Z" fill="#0D062D"/>
<path d="M30 76.98V79C30 84 32 86 37 86H43C48 86 50 84 50 79V73C50 68 48 66 43 66H37C32 66 30 68 30 73" stroke="#B2ABAB" stroke-width="1.5" stroke-linecap="round" stroke-linejoin="round"/>
<path d="M39.17 76L38.7 75.3L35.5 78.5" stroke="#B2ABAB" stroke-width="1.5" stroke-linecap="round" stroke-linejoin="round"/>
<path d="M44.5 73.5L42.99 75.01L42 76" stroke="#B2ABAB" stroke-width="1.5" stroke-linecap="round" stroke-linejoin="round"/>
<path d="M42.5 73.5H44.5V75.5" stroke="#B2ABAB" stroke-width="1.5" stroke-linecap="round" stroke-linejoin="round"/>
<path d="M40.6801 123.96C41.1601 124.67 41.4401 125.52 41.4401 126.44C41.4301 128.84 39.5401 130.79 37.1601 130.87C37.0601 130.86 36.9401 130.86 36.8301 130.87C34.4501 130.79 32.5601 128.84 32.5601 126.44C32.5601 123.99 34.5401 122 37.0001 122" stroke="#B2ABAB" stroke-width="1.5" stroke-linecap="round" stroke-linejoin="round"/>
<path d="M44.4098 124C46.3498 124 47.9098 125.57 47.9098 127.5C47.9098 129.39 46.4098 130.93 44.5398 131C44.4598 130.99 44.3698 130.99 44.2798 131" stroke="#B2ABAB" stroke-width="1.5" stroke-linecap="round" stroke-linejoin="round"/>
<path d="M32.1602 134.56C29.7402 136.18 29.7402 138.82 32.1602 140.43C34.9102 142.27 39.4202 142.27 42.1702 140.43C44.5902 138.81 44.5902 136.17 42.1702 134.56C39.4302 132.73 34.9202 132.73 32.1602 134.56Z" stroke="#B2ABAB" stroke-width="1.5" stroke-linecap="round" stroke-linejoin="round"/>
<path d="M46.3398 140C47.0598 139.85 47.7398 139.56 48.2998 139.13C49.8598 137.96 49.8598 136.03 48.2998 134.86C47.7498 134.44 47.0798 134.16 46.3698 134" stroke="#B2ABAB" stroke-width="1.5" stroke-linecap="round" stroke-linejoin="round"/>
<path d="M31.1699 183.44L39.9999 188.55L48.7699 183.47" stroke="#B7B0B0" stroke-width="1.5" stroke-linecap="round" stroke-linejoin="round"/>
<path d="M40 197.61V188.54" stroke="#B7B0B0" stroke-width="1.5" stroke-linecap="round" stroke-linejoin="round"/>
<path d="M30.3901 185.17C30.3901 183.79 31.3801 182.11 32.5901 181.44L37.9301 178.47C39.0701 177.84 40.9401 177.84 42.0801 178.47L47.4201 181.44C48.6301 182.11 49.6201 183.79 49.6201 185.17V190.82C49.6201 192.2 48.6301 193.88 47.4201 194.55L42.0801 197.52C40.9401 198.15 39.0701 198.15 37.9301 197.52L32.5901 194.55C31.3801 193.88 30.3901 192.2 30.3901 190.82V190" stroke="#B7B0B0" stroke-width="1.5" stroke-linecap="round" stroke-linejoin="round"/>
<path d="M44.9998 189.24V185.58L38.9297 182.07L37.8798 181.47L35.5098 180.1" stroke="#B7B0B0" stroke-width="1.5" stroke-linecap="round" stroke-linejoin="round"/>
<path d="M42.6599 252.01L41.1399 253.53C40.5199 254.15 39.4999 254.15 38.8799 253.53L37.3599 252.01C37.0999 251.75 36.5899 251.54 36.2299 251.54H34.0799C33.1999 251.54 32.4799 250.82 32.4799 249.94V247.79C32.4799 247.43 32.2699 246.92 32.0099 246.66L30.4899 245.14C29.8699 244.52 29.8699 243.5 30.4899 242.88L32.0099 241.36C32.2699 241.1 32.4799 240.59 32.4799 240.23V238.08C32.4799 237.2 33.1999 236.48 34.0799 236.48" stroke="#B2ABAB" stroke-width="1.5" stroke-linecap="round" stroke-linejoin="round"/>
<path d="M37.3398 235.99L38.8598 234.47C39.4798 233.85 40.4998 233.85 41.1198 234.47L42.6399 235.99C42.8999 236.25 43.4098 236.46 43.7698 236.46H45.9199C46.7999 236.46 47.5198 237.18 47.5198 238.06V240.21C47.5198 240.57 47.7298 241.08 47.9898 241.34L49.5099 242.86C50.1299 243.48 50.1299 244.5 49.5099 245.12L47.9898 246.64C47.7298 246.9 47.5198 247.41 47.5198 247.77V249.92C47.5198 250.8 46.7999 251.52 45.9199 251.52" stroke="#B2ABAB" stroke-width="1.5" stroke-linecap="round" stroke-linejoin="round"/>
<path d="M37 247L43 241" stroke="#B2ABAB" stroke-width="1.5" stroke-linecap="round" stroke-linejoin="round"/>
<path d="M42.4945 246.5H42.5035" stroke="#B2ABAB" stroke-width="2" stroke-linecap="round" stroke-linejoin="round"/>
<path d="M37.4945 241.5H37.5035" stroke="#B2ABAB" stroke-width="2" stroke-linecap="round" stroke-linejoin="round"/>
<path d="M40 296V301" stroke="#B2ABAB" stroke-width="1.5" stroke-linecap="round" stroke-linejoin="round"/>
<path d="M32 294C30.75 295.67 30 297.75 30 300C30 305.52 34.48 310 40 310C45.52 310 50 305.52 50 300C50 294.48 45.52 290 40 290C38.57 290 37.2 290.3 35.97 290.85" stroke="#B2ABAB" stroke-width="1.5" stroke-linecap="round" stroke-linejoin="round"/>
<path d="M39.9946 304H40.0036" stroke="#B2ABAB" stroke-width="2" stroke-linecap="round" stroke-linejoin="round"/>
<rect x="17" y="336" width="46" height="92" rx="23" fill="white"/>
<rect x="25" y="344" width="30" height="30" rx="15" fill="#34CAA5"/>
<g clip-path="url(#clip0_1823_10606)">
<path d="M40 363.219C42.33 363.219 44.2188 361.33 44.2188 359C44.2188 356.67 42.33 354.781 40 354.781C37.67 354.781 35.7812 356.67 35.7812 359C35.7812 361.33 37.67 363.219 40 363.219Z" fill="white"/>
<path d="M40 353.093C39.5336 353.093 39.1562 352.716 39.1562 352.25V351.406C39.1562 350.94 39.5336 350.562 40 350.562C40.4664 350.562 40.8438 350.94 40.8438 351.406V352.25C40.8438 352.716 40.4664 353.093 40 353.093Z" fill="white"/>
<path d="M44.7734 355.071C44.5576 355.071 44.3417 354.988 44.1769 354.823C43.8473 354.494 43.8473 353.96 44.1769 353.63L44.7734 353.034C45.103 352.704 45.637 352.704 45.9666 353.034C46.2961 353.363 46.2961 353.898 45.9666 354.227L45.37 354.823C45.2052 354.988 44.9893 355.071 44.7734 355.071Z" fill="white"/>
<path d="M47.5937 359.844H46.75C46.2836 359.844 45.9062 359.466 45.9062 359C45.9062 358.534 46.2836 358.156 46.75 358.156H47.5937C48.0601 358.156 48.4375 358.534 48.4375 359C48.4375 359.466 48.0601 359.844 47.5937 359.844Z" fill="white"/>
<path d="M45.37 365.213C45.1541 365.213 44.9382 365.131 44.7734 364.966L44.1769 364.37C43.8473 364.04 43.8473 363.506 44.1769 363.177C44.5065 362.847 45.0404 362.847 45.37 363.176L45.9666 363.773C46.2961 364.102 46.2961 364.637 45.9666 364.966C45.8018 365.131 45.5859 365.213 45.37 365.213Z" fill="white"/>
<path d="M40 367.437C39.5336 367.437 39.1562 367.06 39.1562 366.594V365.75C39.1562 365.284 39.5336 364.906 40 364.906C40.4664 364.906 40.8438 365.284 40.8438 365.75V366.594C40.8438 367.06 40.4664 367.437 40 367.437Z" fill="white"/>
<path d="M34.6304 365.213C34.4145 365.213 34.1986 365.131 34.0338 364.966C33.7042 364.637 33.7042 364.102 34.0338 363.773L34.6304 363.177C34.96 362.847 35.4939 362.847 35.8235 363.177C36.1531 363.506 36.1531 364.04 35.8235 364.37L35.2269 364.966C35.0621 365.131 34.8463 365.213 34.6304 365.213Z" fill="white"/>
<path d="M33.25 359.844H32.4062C31.9399 359.844 31.5625 359.466 31.5625 359C31.5625 358.534 31.9399 358.156 32.4062 358.156H33.25C33.7164 358.156 34.0938 358.534 34.0938 359C34.0938 359.466 33.7164 359.844 33.25 359.844Z" fill="white"/>
<path d="M35.2269 355.071C35.011 355.071 34.7952 354.988 34.6304 354.824L34.0338 354.227C33.7042 353.898 33.7042 353.363 34.0338 353.034C34.3634 352.704 34.8973 352.704 35.2269 353.034L35.8235 353.63C36.1531 353.96 36.1531 354.494 35.8235 354.823C35.6587 354.988 35.4428 355.071 35.2269 355.071Z" fill="white"/>
</g>
<path d="M40 394.688C40.2486 394.688 40.4871 394.589 40.6629 394.413C40.8387 394.237 40.9375 393.999 40.9375 393.75V392.812C40.9375 392.564 40.8387 392.325 40.6629 392.15C40.4871 391.974 40.2486 391.875 40 391.875C39.7514 391.875 39.5129 391.974 39.3371 392.15C39.1613 392.325 39.0625 392.564 39.0625 392.812V393.75C39.0625 393.999 39.1613 394.237 39.3371 394.413C39.5129 394.589 39.7514 394.688 40 394.688Z" fill="#B2ABAB"/>
<path d="M40 415.312C39.7514 415.312 39.5129 415.411 39.3371 415.587C39.1613 415.763 39.0625 416.001 39.0625 416.25V417.188C39.0625 417.436 39.1613 417.675 39.3371 417.85C39.5129 418.026 39.7514 418.125 40 418.125C40.2486 418.125 40.4871 418.026 40.6629 417.85C40.8387 417.675 40.9375 417.436 40.9375 417.188V416.25C40.9375 416.001 40.8387 415.763 40.6629 415.587C40.4871 415.411 40.2486 415.312 40 415.312Z" fill="#B2ABAB"/>
<path d="M52.1875 404.062H51.25C51.0014 404.062 50.7629 404.161 50.5871 404.337C50.4113 404.513 50.3125 404.751 50.3125 405C50.3125 405.249 50.4113 405.487 50.5871 405.663C50.7629 405.839 51.0014 405.938 51.25 405.938H52.1875C52.4361 405.938 52.6746 405.839 52.8504 405.663C53.0262 405.487 53.125 405.249 53.125 405C53.125 404.751 53.0262 404.513 52.8504 404.337C52.6746 404.161 52.4361 404.062 52.1875 404.062Z" fill="#B2ABAB"/>
<path d="M28.75 404.062H27.8125C27.5639 404.062 27.3254 404.161 27.1496 404.337C26.9738 404.513 26.875 404.751 26.875 405C26.875 405.249 26.9738 405.487 27.1496 405.663C27.3254 405.839 27.5639 405.938 27.8125 405.938H28.75C28.9986 405.938 29.2371 405.839 29.4129 405.663C29.5887 405.487 29.6875 405.249 29.6875 405C29.6875 404.751 29.5887 404.513 29.4129 404.337C29.2371 404.161 28.9986 404.062 28.75 404.062Z" fill="#B2ABAB"/>
<path d="M47.9549 395.719L47.2921 396.382C47.2025 396.468 47.1311 396.572 47.082 396.686C47.0328 396.8 47.007 396.923 47.0059 397.048C47.0048 397.172 47.0285 397.296 47.0757 397.411C47.1228 397.526 47.1924 397.631 47.2804 397.719C47.3685 397.807 47.4731 397.877 47.5884 397.924C47.7036 397.971 47.827 397.995 47.9515 397.993C48.076 397.992 48.199 397.966 48.3134 397.917C48.4278 397.868 48.5312 397.797 48.6177 397.707L49.2814 397.045C49.3685 396.958 49.4376 396.855 49.4848 396.741C49.5319 396.627 49.5562 396.505 49.5562 396.382C49.5562 396.259 49.5319 396.137 49.4848 396.023C49.4376 395.909 49.3685 395.806 49.2814 395.719C49.1943 395.632 49.0909 395.563 48.9771 395.515C48.8633 395.468 48.7413 395.444 48.6182 395.444C48.495 395.444 48.373 395.468 48.2592 395.515C48.1454 395.563 48.042 395.632 47.9549 395.719Z" fill="#B2ABAB"/>
<path d="M31.3818 412.292L30.7181 412.955C30.631 413.042 30.5619 413.145 30.5148 413.259C30.4676 413.373 30.4434 413.495 30.4434 413.618C30.4434 413.741 30.4676 413.863 30.5148 413.977C30.5619 414.091 30.631 414.194 30.7181 414.281C30.894 414.457 31.1326 414.556 31.3814 414.556C31.5046 414.556 31.6265 414.532 31.7403 414.485C31.8542 414.438 31.9576 414.368 32.0447 414.281L32.7075 413.619C32.7946 413.532 32.8637 413.428 32.9108 413.314C32.958 413.201 32.9823 413.079 32.9824 412.956C32.9824 412.832 32.9582 412.711 32.9111 412.597C32.864 412.483 32.795 412.38 32.7079 412.292C32.6209 412.205 32.5176 412.136 32.4038 412.089C32.2901 412.042 32.1681 412.018 32.045 412.018C31.7963 412.017 31.5578 412.116 31.3818 412.292Z" fill="#B2ABAB"/>
<path d="M48.6171 412.292C48.4403 412.121 48.2035 412.027 47.9577 412.029C47.7119 412.031 47.4767 412.13 47.3029 412.303C47.1291 412.477 47.0305 412.712 47.0284 412.958C47.0262 413.204 47.1207 413.441 47.2915 413.618L47.9543 414.281C48.1302 414.457 48.3688 414.556 48.6176 414.556C48.8664 414.556 49.1049 414.457 49.2809 414.281C49.4568 414.105 49.5556 413.867 49.5556 413.618C49.5556 413.369 49.4568 413.131 49.2809 412.955L48.6171 412.292Z" fill="#B2ABAB"/>
<path d="M31.3818 397.708C31.5587 397.879 31.7955 397.973 32.0413 397.971C32.2871 397.969 32.5222 397.871 32.6961 397.697C32.8699 397.523 32.9685 397.288 32.9706 397.042C32.9727 396.796 32.8782 396.559 32.7075 396.383L32.0447 395.719C31.8687 395.543 31.6302 395.444 31.3814 395.444C31.1326 395.444 30.894 395.543 30.7181 395.719C30.5422 395.895 30.4434 396.133 30.4434 396.382C30.4434 396.631 30.5422 396.869 30.7181 397.045L31.3818 397.708Z" fill="#B2ABAB"/>
<path d="M48.1567 406.39C48.0357 406.271 47.8846 406.187 47.7195 406.147C47.5543 406.106 47.3814 406.112 47.2192 406.163C46.5901 406.357 45.9351 406.454 45.2767 406.451C43.4926 406.45 41.7821 405.74 40.5205 404.479C39.2589 403.217 38.5493 401.507 38.5473 399.723C38.545 399.065 38.643 398.41 38.8379 397.781C38.8888 397.619 38.8945 397.446 38.8544 397.28C38.8144 397.115 38.73 396.963 38.6104 396.842C38.4909 396.721 38.3406 396.635 38.1757 396.593C38.0108 396.551 37.8375 396.554 37.6745 396.603C36.2513 397.033 34.964 397.825 33.9381 398.901C32.9122 399.977 32.1827 401.301 31.8208 402.743C31.4589 404.185 31.4769 405.696 31.8731 407.129C32.2692 408.562 33.0301 409.868 34.0814 410.92C35.1326 411.971 36.4385 412.732 37.8715 413.128C39.3045 413.525 40.8157 413.543 42.2578 413.181C43.6999 412.819 45.0236 412.09 46.0999 411.064C47.1761 410.038 47.9681 408.751 48.3985 407.328C48.4473 407.164 48.4506 406.991 48.408 406.825C48.3654 406.66 48.2785 406.51 48.1567 406.39Z" fill="#B2ABAB"/>
<defs>
<clipPath id="clip0_1823_10606">
<rect width="16.875" height="16.875" fill="white" transform="translate(31.5625 350.562)"/>
</clipPath>
</defs>
</svg>
