<svg width="80" height="152" viewBox="0 0 80 152" fill="none" xmlns="http://www.w3.org/2000/svg">
<path d="M36.5 20H42.5" stroke="#B2ABAB" stroke-width="1.5" stroke-linecap="round" stroke-linejoin="round"/>
<path d="M40.5 23L43.5 20L40.5 17" stroke="#B2ABAB" stroke-width="1.5" stroke-linecap="round" stroke-linejoin="round"/>
<path d="M32 14C30.75 15.67 30 17.75 30 20C30 25.52 34.48 30 40 30C45.52 30 50 25.52 50 20C50 14.48 45.52 10 40 10C38.57 10 37.2 10.3 35.97 10.85" stroke="#B2ABAB" stroke-width="1.5" stroke-linecap="round" stroke-linejoin="round"/>
<path d="M43 76C43 74.34 41.66 73 40 73C38.34 73 37 74.34 37 76C37 77.66 38.34 79 40 79C40.41 79 40.81 78.92 41.17 78.76" stroke="#B2ABAB" stroke-width="1.5" stroke-miterlimit="10" stroke-linecap="round" stroke-linejoin="round"/>
<path d="M34.8799 84.5799L35.9699 85.2099C36.7599 85.6799 37.7799 85.3999 38.2499 84.6099L38.3599 84.4199C39.2599 82.8499 40.7399 82.8499 41.6499 84.4199L41.7599 84.6099C42.2299 85.3999 43.2499 85.6799 44.0399 85.2099L45.7699 84.2199C46.6799 83.6999 46.9899 82.5299 46.4699 81.6299C45.5599 80.0599 46.2999 78.7799 48.1099 78.7799C49.1499 78.7799 50.0099 77.9299 50.0099 76.8799V75.1199C50.0099 74.0799 49.1599 73.2199 48.1099 73.2199C47.0999 73.2199 46.4199 72.8199 46.1799 72.1899C45.9899 71.6999 46.0699 71.0599 46.4699 70.3699C46.9899 69.4599 46.6799 68.2999 45.7699 67.7799L44.9599 67.3199" stroke="#B2ABAB" stroke-width="1.5" stroke-miterlimit="10" stroke-linecap="round" stroke-linejoin="round"/>
<path d="M41.64 67.5801C40.74 69.1501 39.26 69.1501 38.35 67.5801L38.24 67.3901C37.78 66.6001 36.76 66.3201 35.97 66.7901L34.24 67.7801C33.33 68.3001 33.02 69.4701 33.54 70.3801C34.45 71.9401 33.71 73.2201 31.9 73.2201C30.86 73.2201 30 74.0701 30 75.1201V76.8801C30 77.9201 30.85 78.7801 31.9 78.7801C33.71 78.7801 34.45 80.0601 33.54 81.6301" stroke="#B2ABAB" stroke-width="1.5" stroke-miterlimit="10" stroke-linecap="round" stroke-linejoin="round"/>
<path d="M34.56 134.56L32 132L34.56 129.44" stroke="#B2ABAB" stroke-width="1.5" stroke-miterlimit="10" stroke-linecap="round" stroke-linejoin="round"/>
<path d="M37.2398 132H32.0698" stroke="#B2ABAB" stroke-width="1.5" stroke-miterlimit="10" stroke-linecap="round" stroke-linejoin="round"/>
<path d="M42.2398 132H40.2798" stroke="#B2ABAB" stroke-width="1.5" stroke-miterlimit="10" stroke-linecap="round" stroke-linejoin="round"/>
<path d="M46.01 126.48C47.25 127.84 48 129.71 48 132C48 137 44.42 140 40 140" stroke="#B2ABAB" stroke-width="1.5" stroke-miterlimit="10" stroke-linecap="round" stroke-linejoin="round"/>
<path d="M40 124C41.05 124 42.05 124.17 42.97 124.49" stroke="#B2ABAB" stroke-width="1.5" stroke-miterlimit="10" stroke-linecap="round" stroke-linejoin="round"/>
</svg>
