<svg width="17" height="18" viewBox="0 0 17 18" fill="none" xmlns="http://www.w3.org/2000/svg">
<path fill-rule="evenodd" clip-rule="evenodd" d="M8.44248 0C6.72165 0 5.0713 0.683596 3.8545 1.9004C2.63769 3.11721 1.95409 4.76756 1.95409 6.48839V7.07778C1.95404 7.66123 1.7813 8.23161 1.45763 8.71704L0.497344 10.1596C-0.619496 11.834 0.232785 14.1095 2.17428 14.6386C2.80637 14.8111 3.44433 14.9568 4.08647 15.0765L4.08814 15.0807C4.73112 16.7986 6.45159 18 8.44248 18C10.4334 18 12.1538 16.7986 12.7977 15.0807L12.7993 15.0765C13.4425 14.9568 14.0804 14.8108 14.7115 14.6386C16.653 14.1095 17.5053 11.834 16.3884 10.1596L15.4273 8.71704C15.1037 8.23161 14.9309 7.66123 14.9309 7.07778V6.48839C14.9309 4.76756 14.2473 3.11721 13.0305 1.9004C11.8137 0.683596 10.1633 0 8.44248 0ZM11.2689 15.3101C9.39102 15.5345 7.4931 15.5345 5.61522 15.3101C6.21047 16.1649 7.2461 16.7442 8.44248 16.7442C9.63885 16.7442 10.6736 16.1649 11.2689 15.3101ZM3.20991 6.48839C3.20991 5.10062 3.7612 3.7697 4.74249 2.7884C5.72379 1.8071 7.05471 1.25582 8.44248 1.25582C9.83024 1.25582 11.1612 1.8071 12.1425 2.7884C13.1238 3.7697 13.675 5.10062 13.675 6.48839V7.07778C13.675 7.90913 13.9212 8.72207 14.3825 9.4136L15.3436 10.8561C15.4925 11.0792 15.5863 11.3344 15.6171 11.6008C15.648 11.8672 15.615 12.1372 15.5209 12.3883C15.4269 12.6395 15.2744 12.8647 15.0762 13.0453C14.878 13.2259 14.6396 13.3568 14.3808 13.4272C10.4926 14.4876 6.39147 14.4876 2.5033 13.4272C2.24474 13.3566 2.00664 13.2257 1.80862 13.0451C1.61059 12.8645 1.45829 12.6394 1.36428 12.3884C1.27026 12.1374 1.23721 11.8677 1.26785 11.6014C1.29849 11.3352 1.39194 11.08 1.54051 10.857L2.5033 9.4136C2.96422 8.7218 3.21008 7.90906 3.20991 7.07778V6.48839Z" fill="#0D062D"/>
</svg>
