<svg width="15" height="15" viewBox="0 0 15 15" fill="none" xmlns="http://www.w3.org/2000/svg">
<path d="M5.40726 11.5115C5.33749 11.5115 5.2747 11.4975 5.20493 11.4696C5.00959 11.3929 4.88401 11.1975 4.88401 10.9882V6.80225C4.88401 6.51621 5.12121 6.279 5.40726 6.279C5.6933 6.279 5.93051 6.51621 5.93051 6.80225V9.72547L6.43283 9.22315C6.63515 9.02083 6.97003 9.02083 7.17235 9.22315C7.37468 9.42547 7.37468 9.76035 7.17235 9.96268L5.77702 11.358C5.67935 11.4557 5.53981 11.5115 5.40726 11.5115Z" fill="#292D32"/>
<path d="M5.40687 11.5115C5.27432 11.5115 5.14176 11.4627 5.03711 11.358L3.64178 9.96268C3.43945 9.76036 3.43945 9.42548 3.64178 9.22315C3.8441 9.02083 4.17898 9.02083 4.3813 9.22315L5.77664 10.6185C5.97896 10.8208 5.97896 11.1557 5.77664 11.358C5.67199 11.4627 5.53943 11.5115 5.40687 11.5115Z" fill="#292D32"/>
<path d="M9.59291 14.9998H5.40692C1.61859 14.9998 0 13.3812 0 9.59291V5.40692C0 1.61859 1.61859 0 5.40692 0H8.89525C9.18129 0 9.4185 0.237207 9.4185 0.52325C9.4185 0.809293 9.18129 1.0465 8.89525 1.0465H5.40692C2.19067 1.0465 1.0465 2.19067 1.0465 5.40692V9.59291C1.0465 12.8092 2.19067 13.9533 5.40692 13.9533H9.59291C12.8092 13.9533 13.9533 12.8092 13.9533 9.59291V6.10458C13.9533 5.81854 14.1905 5.58133 14.4766 5.58133C14.7626 5.58133 14.9998 5.81854 14.9998 6.10458V9.59291C14.9998 13.3812 13.3812 14.9998 9.59291 14.9998Z" fill="#292D32"/>
<path d="M14.4766 6.62782H11.6859C9.29989 6.62782 8.372 5.69993 8.372 3.31391V0.523242C8.372 0.313942 8.49758 0.118595 8.69292 0.0418521C8.88827 -0.0418679 9.11152 0.00696883 9.26501 0.153479L14.8463 5.73481C14.9929 5.88132 15.0417 6.11155 14.958 6.3069C14.8743 6.50224 14.6859 6.62782 14.4766 6.62782ZM9.4185 1.78602V3.31391C9.4185 5.11389 9.88593 5.58132 11.6859 5.58132H13.2138L9.4185 1.78602Z" fill="#292D32"/>
</svg>
